<?xml version="1.0" encoding="UTF-8"?>
<svg id="_图层_1" data-name="图层 1" xmlns="http://www.w3.org/2000/svg" viewBox="0 0 730 642.15">
  <defs>
    <style>
      .cls-1 {
        fill: #fff;
      }

      .cls-2 {
        fill: #c81d1d;
      }

      .cls-3 {
        fill: #221714;
        font-family: BellMTBold, 'Bell MT';
        font-size: 148.06px;
      }
    </style>
  </defs>
  <text class="cls-3" transform="translate(.59 602.6)"><tspan x="0" y="0">JINDRICH</tspan></text>
  <g>
    <path d="M405.77,110.71c1.48.42,2.36.61,3.18.91,28.17,10.49,56.32,21.02,84.51,31.45,2.15.79,2.97,1.83,2.97,4.17-.12,42.88.52,85.78-.45,128.64-.74,32.86-13.47,61.69-34.26,87.06-24.22,29.54-55.45,47.42-92.53,55.14-5.21,1.08-11.22-.7-16.68-1.96-28.26-6.54-53.69-19.01-75.32-38.38-33.63-30.13-52.07-67.61-52.29-113.21-.21-44.7-.05-89.39-.05-134.09,0-1.12,0-2.24,0-3.96,1.58.48,2.72.76,3.82,1.16,5.64,2.08,11.23,4.3,16.92,6.24,2.34.8,3.06,2.02,3.05,4.45-.07,30.18-.13,60.35-.01,90.53.07,16.55-.35,33.17.93,49.64,1.8,23.16,10.82,43.89,24.81,62.39.87,1.16,3.08,2.15,4.48,1.94,49.94-7.35,88.44-31.74,112.77-76.67,9.17-16.93,13.81-35.31,14-54.55.31-32.1.12-64.21.14-96.31,0-1.34,0-2.68,0-4.57Z"/>
    <path d="M424.06,417.28c2.04-1.14,4.08-2.28,6.11-3.42,20.78-11.61,39.59-25.61,54.44-44.49,1.31-1.67,3.09-2.99,4.73-4.37,25.94-21.8,42.62-49.03,47.26-82.83,1.5-10.95,1.3-22.17,1.34-33.27.15-36.18.02-72.37.13-108.55,0-3.12-.91-4.51-3.89-5.6-84.63-30.78-169.22-61.67-253.82-92.53-17.48-6.38-34.95-12.76-52.46-19.02-2.32-.83-3.2-1.93-3.11-4.39.17-4.99.22-9.99-.01-14.97-.14-2.96.7-3.87,3.77-3.85,24.39.12,48.78.04,73.16.04,63.29,0,126.59.02,189.88.03q4.78,0,4.79,4.78c0,29.38.08,58.76-.1,88.14-.02,3.66,1.23,5.02,4.51,6.18,19.35,6.84,38.6,13.99,57.93,20.9,2.47.88,3.24,2.18,3.24,4.69-.07,46.73.13,93.47-.15,140.2-.25,42.78-16.86,78.67-47.48,108.14-24.71,23.79-54.32,38.22-87.92,44.67-.65.13-1.32.17-1.98.25-.12-.25-.25-.49-.37-.74ZM292.53,22.02c-.04.34-.09.67-.13,1.01,37.55,13.71,75.1,27.41,113.16,41.3.09-1.78.2-2.98.21-4.17.01-11.12.01-22.23,0-33.35,0-4.79-.01-4.82-4.82-4.82-32.9,0-65.79.02-98.69.03-3.24,0-6.49,0-9.73,0Z"/>
    <path class="cls-2" d="M168.83,315.47c1.79,1.16,3.6,2.3,5.37,3.49,13.2,8.86,27.46,15.35,42.81,19.55,1.74.48,3.79,1.82,4.62,3.35,18.9,34.94,46.49,60.79,81.8,78.62,1.06.54,2.11,1.09,2.98,2.03-31.67-3.43-60.24-14.64-85.47-34.08-24.64-18.99-42.5-42.97-52.89-72.3.26-.22.52-.44.78-.66Z"/>
    <path class="cls-1" d="M292.53,22.02c3.24,0,6.49,0,9.73,0,32.9,0,65.79-.02,98.69-.03,4.81,0,4.82.02,4.82,4.82,0,11.12,0,22.23,0,33.35,0,1.19-.11,2.39-.21,4.17-38.07-13.89-75.61-27.6-113.16-41.3.04-.34.09-.67.13-1.01Z"/>
  </g>
</svg>